<?xml version="1.0" encoding="utf-8"?>
<!-- Generator: Adobe Illustrator 16.0.0, SVG Export Plug-In . SVG Version: 6.00 Build 0)  -->
<!DOCTYPE svg PUBLIC "-//W3C//DTD SVG 1.1//EN" "http://www.w3.org/Graphics/SVG/1.1/DTD/svg11.dtd">
<svg version="1.1" id="Layer_1" xmlns="http://www.w3.org/2000/svg" xmlns:xlink="http://www.w3.org/1999/xlink" x="0px" y="0px"
	 width="100px" height="100px" viewBox="0 0 100 100" enable-background="new 0 0 100 100" xml:space="preserve">
<path opacity="0.5" d="M12,27v46h76V27H12z M83,68H17V32h66V68z"/>
<g opacity="0.5">
	<path d="M43.204,49.499c0.001,0.446,0.362,0.807,0.808,0.808H44.9c0.272,0.719,0.693,1.375,1.235,1.922
		c1.517,1.52,3.787,2,5.79,1.227c0.414-0.16,0.62-0.625,0.46-1.041c-0.16-0.414-0.627-0.621-1.042-0.459
		c-1.408,0.539-3.002,0.201-4.069-0.865c-0.231-0.232-0.432-0.493-0.598-0.775h3.666c0.446,0,0.808-0.361,0.808-0.808
		S50.789,48.7,50.343,48.7h-4.167c-0.011-0.148-0.014-0.296-0.008-0.444h4.651c0.446,0,0.808-0.361,0.808-0.808
		c0-0.446-0.361-0.808-0.808-0.808h-4.231c0.896-1.723,2.943-2.498,4.756-1.801c0.415,0.161,0.882-0.045,1.042-0.46
		c0.16-0.415-0.046-0.881-0.46-1.042c-2.003-0.77-4.271-0.289-5.79,1.228c-0.585,0.583-1.027,1.293-1.292,2.075h-0.832
		c-0.446,0-0.808,0.362-0.808,0.808c0,0.446,0.361,0.808,0.808,0.808h0.541c0,0.146,0,0.299,0.008,0.444h-0.549
		c-0.214-0.002-0.419,0.081-0.571,0.231C43.289,49.081,43.204,49.286,43.204,49.499z"/>
	<path d="M37.115,56.994H59.67c0.223,0,0.436-0.092,0.59-0.252l3.295-3.48c0.143-0.15,0.221-0.35,0.218-0.557v-8.625
		c-0.001-0.204-0.079-0.4-0.218-0.549L60.3,40.05c-0.152-0.163-0.365-0.257-0.59-0.258H37.115c-0.223,0-0.436,0.09-0.59,0.25
		l-3.295,3.48c-0.143,0.15-0.221,0.35-0.218,0.558v8.625c0.001,0.207,0.078,0.404,0.218,0.557l3.295,3.48
		C36.679,56.904,36.893,56.994,37.115,56.994z M34.62,44.403l2.834-2.996h21.901l2.794,2.996v7.987l-2.835,2.996H37.462
		l-2.834-2.996L34.62,44.403z"/>
	<path d="M66.906,39.841c-0.357-1.911-2.022-3.297-3.966-3.303H33.836c-2.229,0.001-4.036,1.808-4.037,4.038v15.618
		c0.003,1.945,1.391,3.611,3.303,3.965c0.356,1.91,2.021,3.297,3.965,3.305h29.097c2.229-0.002,4.037-1.809,4.038-4.039v-15.61
		C70.201,41.869,68.817,40.199,66.906,39.841z M31.414,56.201V40.583c0.003-1.336,1.086-2.419,2.422-2.422h29.097
		c1.336,0.003,2.419,1.086,2.423,2.422v15.618c-0.004,1.338-1.087,2.42-2.423,2.424H33.836C32.5,58.621,31.417,57.539,31.414,56.201
		z M68.594,59.432c-0.004,1.336-1.087,2.42-2.423,2.424H37.066c-1.026-0.004-1.94-0.648-2.285-1.615h28.151
		c2.229-0.002,4.037-1.809,4.038-4.039V41.528c0.968,0.343,1.614,1.259,1.615,2.286v15.618H68.594z"/>
</g>
</svg>
