<?xml version="1.0" encoding="utf-8"?>
<!-- Generator: Adobe Illustrator 16.0.0, SVG Export Plug-In . SVG Version: 6.00 Build 0)  -->
<!DOCTYPE svg PUBLIC "-//W3C//DTD SVG 1.1//EN" "http://www.w3.org/Graphics/SVG/1.1/DTD/svg11.dtd">
<svg version="1.1" id="Layer_1" xmlns="http://www.w3.org/2000/svg" xmlns:xlink="http://www.w3.org/1999/xlink" x="0px" y="0px"
	 width="100px" height="100px" viewBox="0 0 100 100" enable-background="new 0 0 100 100" xml:space="preserve">
<g>
	<g>
		<g>
			<path d="M34.23,44.277c-0.188-0.377-0.485-0.688-0.854-0.921c-0.385-0.236-0.839-0.402-1.359-0.5
				c-0.529-0.096-1.139-0.139-1.847-0.146l-3.267,0.003c-0.339,0.004-0.672,0.269-0.751,0.597l-2.198,9.57
				c-0.08,0.324,0.133,0.596,0.473,0.596h1.564c0.339,0,0.675-0.264,0.751-0.596l0.536-2.323c0.072-0.324,0.407-0.592,0.75-0.592
				h0.448c1.913-0.004,3.394-0.395,4.458-1.178c1.07-0.783,1.597-1.818,1.597-3.102C34.53,45.125,34.438,44.653,34.23,44.277z
				 M30.857,47.405c-0.473,0.346-1.13,0.52-1.978,0.52h-0.383c-0.34,0-0.549-0.27-0.475-0.598l0.47-2.032
				c0.066-0.326,0.409-0.597,0.745-0.593l0.513-0.004c0.598,0,1.055,0.104,1.36,0.304c0.302,0.198,0.453,0.515,0.451,0.933
				C31.57,46.569,31.327,47.058,30.857,47.405z"/>
		</g>
	</g>
	<g>
		<g>
			<path d="M41.773,45.646c-0.59-0.332-1.522-0.498-2.795-0.498c-0.63,0-1.258,0.049-1.893,0.146
				c-0.468,0.072-0.514,0.086-0.802,0.148c-0.595,0.129-0.688,0.723-0.688,0.723l-0.191,0.787c-0.108,0.502,0.181,0.483,0.302,0.441
				c0.26-0.078,0.404-0.157,0.935-0.275c0.507-0.115,1.042-0.202,1.465-0.196c0.625,0,1.104,0.065,1.423,0.2
				C39.843,47.259,40,47.493,40,47.833l-0.027,0.221l-0.226,0.14c-0.888,0.056-1.529,0.138-2.307,0.251
				c-0.761,0.105-1.429,0.291-1.983,0.545c-0.596,0.262-1.038,0.615-1.347,1.063c-0.298,0.449-0.448,0.993-0.448,1.634
				c0,0.604,0.217,1.102,0.637,1.486c0.422,0.379,0.98,0.563,1.648,0.563c0.422-0.002,0.75-0.035,0.982-0.092l0.758-0.26
				l0.641-0.355l0.59-0.391l0.008,0.012l-0.059,0.25l-0.004,0.012v0.002c-0.063,0.305,0.121,0.557,0.418,0.586l0.006,0.006h0.027
				h1.2h0.226l0.021-0.01c0.313-0.035,0.605-0.287,0.673-0.584l1.141-4.936l0.059-0.402l0.027-0.377
				C42.666,46.495,42.364,45.978,41.773,45.646z M39.251,51.195l-0.244,0.32l-0.615,0.318c-0.29,0.117-0.564,0.178-0.818,0.178
				c-0.385,0-0.687-0.057-0.891-0.17l-0.301-0.588c0-0.317,0.073-0.567,0.229-0.761l0.663-0.451c0.284-0.096,0.63-0.178,1.031-0.234
				c0.357-0.043,1.064-0.125,1.156-0.127l0.108,0.189C39.547,49.979,39.347,50.817,39.251,51.195z"/>
		</g>
	</g>
	<g>
		<g>
			<path d="M70.183,45.653c-0.593-0.334-1.524-0.501-2.794-0.501c-0.63,0-1.26,0.05-1.892,0.15c-0.47,0.069-0.517,0.083-0.806,0.146
				c-0.594,0.128-0.686,0.725-0.686,0.725l-0.191,0.785c-0.106,0.503,0.176,0.479,0.308,0.441c0.261-0.078,0.401-0.154,0.927-0.277
				c0.505-0.113,1.045-0.198,1.469-0.195c0.623,0,1.103,0.066,1.42,0.201c0.316,0.137,0.472,0.373,0.472,0.709l-0.024,0.221
				L68.162,48.2c-0.896,0.053-1.539,0.135-2.31,0.248c-0.759,0.105-1.428,0.291-1.984,0.545c-0.594,0.264-1.041,0.617-1.347,1.064
				c-0.303,0.451-0.449,0.993-0.449,1.628c0,0.607,0.214,1.105,0.641,1.488c0.425,0.377,0.978,0.566,1.646,0.566
				c0.42-0.004,0.747-0.031,0.98-0.092l0.756-0.258l0.646-0.355l0.586-0.395l0.01,0.014l-0.054,0.252l-0.006,0.004l0.003,0.006
				c-0.071,0.305,0.115,0.559,0.416,0.586l0.002,0.004h0.027c0.197,0,0.878,0,1.203,0h0.221l0.024-0.008
				c0.308-0.037,0.6-0.287,0.665-0.59l1.144-4.929l0.061-0.404l0.033-0.378C71.077,46.501,70.778,45.983,70.183,45.653z
				 M67.666,51.203l-0.254,0.324l-0.609,0.314c-0.289,0.117-0.564,0.178-0.814,0.178c-0.397,0-0.691-0.059-0.89-0.172l-0.306-0.584
				c0-0.317,0.074-0.567,0.224-0.765c0.151-0.186,0.383-0.338,0.67-0.449c0.28-0.096,0.627-0.174,1.029-0.232
				c0.355-0.045,1.06-0.127,1.15-0.129l0.111,0.191C67.962,49.987,67.76,50.823,67.666,51.203z"/>
		</g>
	</g>
	<g>
		<g>
			<path d="M62.636,44.313c-0.196-0.38-0.49-0.687-0.861-0.926c-0.381-0.236-0.832-0.403-1.359-0.499
				c-0.519-0.092-1.137-0.142-1.84-0.144l-3.271,0.002c-0.342,0.006-0.668,0.271-0.746,0.596l-2.2,9.575
				c-0.08,0.324,0.139,0.594,0.472,0.594l1.566-0.002c0.332,0.002,0.674-0.266,0.752-0.594l0.529-2.323
				c0.077-0.324,0.414-0.596,0.752-0.594h0.448c1.915,0,3.399-0.395,4.468-1.174c1.057-0.791,1.59-1.824,1.59-3.107
				C62.931,45.158,62.834,44.686,62.636,44.313z M59.262,47.444c-0.472,0.34-1.13,0.514-1.973,0.514h-0.39
				c-0.336,0.002-0.554-0.271-0.479-0.597l0.474-2.028c0.07-0.325,0.409-0.598,0.747-0.594l0.507-0.004
				c0.603,0.004,1.054,0.103,1.361,0.303c0.306,0.201,0.45,0.516,0.454,0.932C59.967,46.606,59.731,47.096,59.262,47.444z"/>
		</g>
	</g>
	<g>
		<g>
			<path d="M76.048,43.419c0.072-0.327-0.134-0.593-0.47-0.588h-1.401c-0.287,0-0.546,0.213-0.672,0.475l-0.077,0.121l-0.07,0.31
				l-1.959,8.9l-0.063,0.273l0.002,0.008c-0.065,0.293,0.115,0.514,0.393,0.557l0.024,0.031h1.455c0.284,0,0.552-0.215,0.674-0.482
				l0.075-0.113l2.095-9.49L76.048,43.419z"/>
		</g>
	</g>
	<g>
		<g>
			<path d="M52.401,45.267c-0.37,0.004-1.875,0-1.875,0c-0.337,0-0.77,0.271-0.984,0.597c0,0-2.24,3.845-2.458,4.229l-0.259-0.002
				l-0.697-4.201c-0.078-0.33-0.423-0.613-0.852-0.613l-1.401,0.002c-0.337,0-0.545,0.27-0.468,0.598c0,0,1.064,6.054,1.277,7.479
				c0.099,0.785-0.012,0.926-0.012,0.926l-1.385,2.412c-0.205,0.33-0.095,0.596,0.241,0.596l1.62-0.002
				c0.337,0,0.78-0.264,0.981-0.594l6.231-10.54C52.359,46.155,52.959,45.254,52.401,45.267z"/>
		</g>
	</g>
</g>
<path d="M12,27v46h76V27H12z M83,68H17V32h66V68z"/>
</svg>
