<?xml version="1.0" encoding="utf-8"?>
<!-- Generator: Adobe Illustrator 16.0.0, SVG Export Plug-In . SVG Version: 6.00 Build 0)  -->
<!DOCTYPE svg PUBLIC "-//W3C//DTD SVG 1.1//EN" "http://www.w3.org/Graphics/SVG/1.1/DTD/svg11.dtd">
<svg version="1.1" id="Layer_1" xmlns="http://www.w3.org/2000/svg" xmlns:xlink="http://www.w3.org/1999/xlink" x="0px" y="0px"
	 width="100px" height="100px" viewBox="0 0 100 100" enable-background="new 0 0 100 100" xml:space="preserve">
<path d="M12,27v46h76V27H12z M83,68H17V32h66V68z"/>
<g>
	<path fill-rule="evenodd" clip-rule="evenodd" d="M23.692,54.561c0.267-0.731,0.461-1.365,0.738-1.961
		c0.071-0.156,0.395-0.271,0.604-0.272c1.704-0.022,3.409-0.01,5.113-0.02c0.244-0.001,0.534-0.003,0.717-0.127
		c0.191-0.131,0.373-0.408,0.382-0.628c0.007-0.181-0.206-0.442-0.391-0.545c-0.283-0.156-0.627-0.204-0.943-0.306
		c-1.242-0.396-1.64-1.162-1.22-2.395c0.477-1.401,1.187-2.601,2.825-2.816c0.655-0.086,1.328-0.045,1.991-0.048
		c1.408-0.006,2.815-0.002,4.239-0.002c-0.585,0.613-1.122,1.206-1.698,1.759c-0.156,0.15-0.428,0.245-0.65,0.251
		c-0.893,0.028-1.787,0.001-2.681,0.02c-0.264,0.005-0.561,0.034-0.778,0.162c-0.181,0.107-0.37,0.377-0.368,0.572
		c0.003,0.194,0.201,0.459,0.385,0.559c0.304,0.163,0.671,0.205,1.004,0.319c1.082,0.373,1.487,1.119,1.221,2.229
		c-0.471,1.964-1.641,3.073-3.833,3.218C28.181,54.673,25.995,54.561,23.692,54.561z"/>
	<path fill-rule="evenodd" clip-rule="evenodd" d="M58.021,54.572c0.301-0.826,0.561-1.542,0.82-2.258
		c0.768-2.105,1.542-4.207,2.291-6.317c0.149-0.423,0.368-0.585,0.818-0.563c1.24,0.063,2.498-0.011,3.723,0.156
		c1.351,0.184,1.824,1.105,1.441,2.415c-0.305,1.04-0.98,1.762-1.91,2.275c-0.231,0.128-0.464,0.253-0.663,0.362
		c0.406,1.31,0.796,2.565,1.219,3.928c-0.955,0-1.761,0.027-2.564-0.021c-0.162-0.011-0.393-0.279-0.448-0.472
		c-0.204-0.694-0.344-1.407-0.518-2.11c-0.042-0.171-0.117-0.332-0.325-0.506c-0.292,0.766-0.625,1.521-0.866,2.305
		c-0.188,0.605-0.468,0.901-1.147,0.82C59.321,54.52,58.734,54.572,58.021,54.572z M62.291,49.483
		c1.338,0.215,2.144-0.268,2.397-1.334c0.094-0.394,0.006-0.738-0.407-0.845c-0.418-0.109-0.959-0.341-1.228,0.171
		C62.732,48.089,62.552,48.775,62.291,49.483z"/>
	<path fill-rule="evenodd" clip-rule="evenodd" d="M53.184,54.704c-2.087-0.003-3.101-1.221-2.699-3.32
		c0.404-2.112,1.385-3.903,3.167-5.173c1.191-0.849,2.524-1.142,3.954-0.744c0.938,0.262,1.528,0.996,1.515,1.972
		c-0.034,2.722-1.149,4.934-3.342,6.552C55.032,54.542,54.124,54.74,53.184,54.704z M56.612,48.396
		c0.004-0.963-0.435-1.325-1.126-1.085c-0.355,0.124-0.734,0.345-0.968,0.632c-0.913,1.122-1.391,2.445-1.558,3.871
		c-0.077,0.654,0.431,1.078,1.074,0.913c0.345-0.088,0.742-0.257,0.952-0.52C55.933,51.032,56.347,49.622,56.612,48.396z"/>
	<path fill-rule="evenodd" clip-rule="evenodd" d="M37.624,54.704c-1.355,0.003-2.35-0.617-2.552-1.878
		c-0.092-0.578-0.051-1.213,0.085-1.785c0.481-2.019,1.476-3.733,3.232-4.924c0.963-0.652,2.041-0.893,3.197-0.793
		c1.479,0.127,2.383,1.184,2.16,2.835c-0.303,2.239-1.234,4.214-3.077,5.639C39.858,54.423,38.916,54.723,37.624,54.704z
		 M41.248,48.324c0.024-0.829-0.421-1.229-1.074-1.033c-0.359,0.107-0.742,0.315-0.987,0.591c-0.982,1.103-1.416,2.468-1.631,3.894
		c-0.102,0.676,0.434,1.129,1.096,0.952c0.36-0.096,0.771-0.288,0.991-0.568C40.556,50.994,40.942,49.594,41.248,48.324z"/>
	<path fill-rule="evenodd" clip-rule="evenodd" d="M42.558,54.572c0.183-0.527,0.331-0.973,0.491-1.413
		c0.646-1.772,1.292-3.545,1.942-5.315c0.637-1.737,1.58-2.399,3.416-2.401c1.579-0.001,3.157,0,4.313,0
		c-0.384,0.49-0.938,1.221-1.526,1.92c-0.089,0.107-0.348,0.095-0.529,0.097c-0.707,0.011-1.413-0.002-2.118,0.007
		c-0.669,0.009-1.337,0.76-1.227,1.418c0.02,0.116,0.291,0.259,0.453,0.268c0.577,0.034,1.155,0.014,1.867,0.014
		c-0.21,0.587-0.364,1.091-0.579,1.565c-0.054,0.12-0.302,0.201-0.465,0.211c-0.456,0.028-0.918,0.048-1.37-0.002
		c-0.563-0.061-0.811,0.185-0.97,0.7c-0.258,0.83-0.594,1.635-0.877,2.458c-0.118,0.343-0.305,0.496-0.683,0.481
		C44.017,54.553,43.335,54.572,42.558,54.572z"/>
	<path fill-rule="evenodd" clip-rule="evenodd" d="M69.857,47.462c-0.558,0-0.932,0.038-1.291-0.016
		c-0.169-0.025-0.393-0.193-0.452-0.349c-0.197-0.526-0.332-1.076-0.492-1.619c2.782,0,5.676,0,8.686,0
		c-0.23,0.623-0.419,1.208-0.671,1.761c-0.06,0.127-0.342,0.208-0.523,0.214c-0.747,0.023-1.497,0.035-2.242,0.001
		c-0.456-0.019-0.668,0.17-0.813,0.582c-0.71,1.992-1.453,3.973-2.158,5.966c-0.146,0.416-0.334,0.614-0.799,0.579
		c-0.552-0.042-1.11-0.01-1.812-0.01C68.152,52.183,68.977,49.901,69.857,47.462z"/>
</g>
</svg>
