<?xml version="1.0" encoding="utf-8"?>
<!-- Generator: Adobe Illustrator 16.0.0, SVG Export Plug-In . SVG Version: 6.00 Build 0)  -->
<!DOCTYPE svg PUBLIC "-//W3C//DTD SVG 1.1//EN" "http://www.w3.org/Graphics/SVG/1.1/DTD/svg11.dtd">
<svg version="1.1" id="Layer_1" xmlns="http://www.w3.org/2000/svg" xmlns:xlink="http://www.w3.org/1999/xlink" x="0px" y="0px"
	 width="100px" height="100px" viewBox="0 0 100 100" enable-background="new 0 0 100 100" xml:space="preserve">
<path d="M12,27v46h76V27H12z M83,68H17V32h66V68z"/>
<g>
	<g>
		<g>
			<path d="M49.146,45.004c0,3.803,0,7.585,0,11.408c1.361,0,2.698,0,4.051,0c0-3.811,0-7.604,0-11.408
				C51.839,45.004,50.506,45.004,49.146,45.004z"/>
		</g>
	</g>
	<g>
		<g>
			<path d="M47.813,44.887c-1.277-0.34-2.036-0.036-2.787,1.156c-0.149-0.268-0.308-0.52-0.433-0.787
				c-0.096-0.209-0.23-0.28-0.459-0.276c-0.882,0.014-1.761,0.006-2.641,0.007c-0.093,0-0.186,0.019-0.27,0.029
				c0,3.818,0,7.605,0,11.389c1.364,0,2.695,0,4.067,0c0-0.155,0-0.288,0-0.422c0-2.221,0-4.438,0-6.655
				c0-0.836,0.114-0.97,0.963-1.08c0.209-0.027,0.422-0.041,0.63-0.023c0.405,0.038,0.809,0.099,1.264,0.155
				c0-1.037-0.01-2.052,0.007-3.066C48.158,45.045,48.054,44.951,47.813,44.887z"/>
		</g>
	</g>
	<g>
		<g>
			<path d="M30.868,50.079c-0.396-0.287-0.857-0.487-1.293-0.718c-0.338-0.181-0.713-0.309-1.012-0.539
				c-0.162-0.123-0.291-0.428-0.261-0.624c0.027-0.166,0.285-0.367,0.477-0.417c0.265-0.071,0.569-0.052,0.847-0.011
				c0.683,0.103,1.36,0.238,2.065,0.368c0-0.83-0.011-1.672,0.007-2.513c0.005-0.244-0.081-0.347-0.303-0.417
				c-1.383-0.445-2.791-0.571-4.215-0.28c-1.338,0.271-2.356,0.958-2.747,2.352c-0.084,0.292-0.123,0.6-0.184,0.898
				c0,0.224,0,0.446,0,0.669c0.023,0.083,0.057,0.164,0.068,0.247c0.116,0.897,0.543,1.619,1.274,2.137
				c0.372,0.261,0.793,0.454,1.194,0.669c0.348,0.188,0.711,0.353,1.045,0.561c0.252,0.158,0.379,0.449,0.242,0.71
				c-0.098,0.188-0.339,0.386-0.54,0.414c-0.385,0.056-0.793,0.038-1.18-0.023c-0.627-0.095-1.244-0.253-1.899-0.388
				c0,0.938-0.009,1.843,0.013,2.745c0.002,0.09,0.162,0.229,0.272,0.257c1.285,0.362,2.586,0.54,3.928,0.417
				c2.066-0.187,3.219-1.263,3.434-3.313C32.234,52.016,31.957,50.872,30.868,50.079z"/>
		</g>
	</g>
	<g>
		<g>
			<path d="M38.178,52.878c-0.014-0.12-0.013-0.25-0.013-0.371c-0.001-1.513-0.001-3.024,0-4.537c0-0.117,0.013-0.235,0.021-0.383
				c0.554,0,1.07,0,1.6,0c0.181-0.873,0.354-1.719,0.539-2.611c-0.737,0-1.438,0-2.172,0c0-1.163,0-2.282,0-3.433
				c-1.11,0.267-2.177,0.535-3.25,0.777c-0.267,0.058-0.35,0.192-0.395,0.442c-0.133,0.739-0.292,1.474-0.447,2.237
				c-0.511,0-0.987,0-1.465,0c0,0.883,0,1.73,0,2.604c0.498,0,0.966,0,1.472,0c0,0.164,0,0.294,0,0.427
				c0.002,1.849-0.012,3.693,0.007,5.542c0.017,1.569,0.716,2.614,1.981,2.918c1.434,0.352,2.843,0.048,4.249-0.21
				c0-0.987,0-1.928,0-2.902c-0.483,0.054-0.925,0.121-1.369,0.147C38.426,53.556,38.238,53.384,38.178,52.878z"/>
		</g>
	</g>
	<g>
		<g>
			<path d="M51.43,39.488c-0.009-0.007-0.019-0.01-0.029-0.016c-0.148,0-0.297,0-0.445,0c-0.023,0.006-0.051,0.014-0.075,0.023
				c-0.989,0.149-1.746,1.005-1.746,2.036c0,0.58,0.24,1.105,0.627,1.48c0.248,0.245,0.565,0.429,0.932,0.521
				c0.165,0.042,0.334,0.063,0.497,0.061c0.002,0,0.004,0,0.007,0c1.138,0,2.06-0.923,2.06-2.061
				C53.256,40.475,52.459,39.604,51.43,39.488z"/>
		</g>
	</g>
	<g>
		<g>
			<path d="M71.157,53.481c-0.747-0.114-1.081-0.617-0.974-1.424c1.807,0,3.627,0,5.566,0c-0.087-1.236-0.118-2.413-0.273-3.575
				c-0.138-1.018-0.537-1.96-1.318-2.684c-0.951-0.886-2.128-1.065-3.356-1.012c-2.395,0.107-3.825,1.174-4.41,3.314
				c-0.479,1.74-0.477,3.509-0.012,5.257c0.441,1.671,1.508,2.744,3.244,3.091c1.546,0.309,3.077,0.242,4.599-0.143
				c0.876-0.221,0.876-0.218,0.876-1.12c0-0.688,0-1.378,0-2.098c-0.379,0.067-0.705,0.129-1.031,0.185
				C73.103,53.433,72.137,53.636,71.157,53.481z M70.279,47.956c0.022-0.172,0.12-0.356,0.238-0.491
				c0.37-0.433,1.05-0.315,1.166,0.238c0.141,0.681,0.161,1.386,0.241,2.113c-0.663-0.001-1.206-0.001-1.823-0.001
				C70.16,49.178,70.202,48.564,70.279,47.956z"/>
		</g>
	</g>
	<g>
		<g>
			<path d="M64.896,48.954c-0.073-0.872-0.238-1.722-0.624-2.513c-0.351-0.723-0.87-1.273-1.663-1.492
				c-1.218-0.336-2.38-0.216-3.439,0.526c-0.1,0.069-0.198,0.134-0.345,0.238c-0.301-0.795-0.944-0.779-1.607-0.728
				c-0.098,0.009-0.197,0.002-0.298,0.002c-0.64,0-1.281,0-1.962,0c0,0.174,0,0.308,0,0.44c0,4.909,0,9.817,0,14.726
				c0,0.123,0.009,0.251,0.017,0.373c1.363,0,2.727,0,4.091,0c0-1.358,0-2.72,0-4.052c0.608,0.06,1.186,0.163,1.761,0.16
				c1.976-0.019,3.16-0.927,3.75-2.816c0.023-0.082,0.049-0.164,0.068-0.25C65.037,52.047,65.031,50.503,64.896,48.954z
				 M60.683,52.81c-0.187,0.901-0.722,1.155-1.628,0.822c0-0.248,0-0.504,0-0.761c0-1.474,0.009-2.947-0.007-4.418
				c-0.002-0.259,0.089-0.389,0.315-0.461c0.127-0.042,0.252-0.097,0.384-0.136c0.56-0.162,0.925,0.022,0.999,0.597
				C60.94,49.903,60.981,51.363,60.683,52.81z"/>
		</g>
	</g>
</g>
</svg>
